# xmcd
#
# Track frame offsets:
# 150
# 16584
# 28985
# 44884
# 60175
# 75549
# 90215
# 107550
# 134585
# 152085
# 170072
# 186124
# 202076
# 217903
# 234090
# 251176
# 267590
# 282820
# 297237
# 311916
#
# Disc length: 4347 seconds
#
#
# Revision: 0
# Processed by: cddbd v1.5.2PL0 Copyright (c) Steve Scherf et al.
# Submitted via: FreeRIP 2.942 
#
DISCID=1e10f914
DTITLE=DJ Siegers - Love
DYEAR=1900
DGENRE=Ambient
TTITLE0=fgdbg
TTITLE1=ghmgcv
TTITLE2=dgdcrtg
TTITLE3=jrdhrt
TTITLE4=452jh
TTITLE5=th
TTITLE6=thdf
TTITLE7=egdgt
TTITLE8=Love
TTITLE9=fjnjgdf
TTITLE10=vmxflkbm
TTITLE11=nvmk,xfm
TTITLE12=vijxdklbn
TTITLE13=vmlkcxfjgrg
TTITLE14=frhcgbh
TTITLE15=hzdrttttt
TTITLE16=hdfthzdr
TTITLE17=tshrdsth
TTITLE18=LOVE
TTITLE19=gvy
EXTD=Ober geil
EXTT0=
EXTT1=
EXTT2=
EXTT3=
EXTT4=
EXTT5=
EXTT6=
EXTT7=
EXTT8=
EXTT9=
EXTT10=
EXTT11=
EXTT12=
EXTT13=
EXTT14=
EXTT15=
EXTT16=
EXTT17=
EXTT18=
EXTT19=
PLAYORDER=
